Coordinates
version=1
nRows=32
nColumns=22
inDegrees=yes

Units are S.I. units (second, meters, Newtons, ...)
If the header above contains a line with 'inDegrees', this indicates whether rotational values are in degrees (yes) or radians (no).

endheader
time	pelvis_tilt	pelvis_list	pelvis_rotation	pelvis_tx	pelvis_ty	pelvis_tz	hip_flexion_r	hip_adduction_r	hip_rotation_r	knee_angle_r	ankle_angle_r	subtalar_angle_r	hip_flexion_l	hip_adduction_l	hip_rotation_l	knee_angle_l	ankle_angle_l	subtalar_angle_l	lumbar_extension	lumbar_bending	lumbar_rotation
      2.46000000	     -7.61850739	     -5.41609118	     -6.87864279	      0.38578311	      0.93099930	     -0.21726289	      2.92773708	      5.56165465	      8.32217418	    -34.11406224	      6.64225727	      5.87790590	     31.98345015	     -8.37707529	     -0.26024789	    -31.34525319	      2.77818177	     -4.51476272	     -8.72082000	      2.58759435	      8.12141332
      2.47000000	     -7.65541860	     -5.27377946	     -7.15608458	      0.37586070	      0.92979681	     -0.21453696	      2.48679090	      5.47913489	      8.56739570	    -32.52566180	      7.85192377	      5.95778874	     32.55321535	     -8.56468696	     -0.34407235	    -31.15264370	      2.02358344	     -4.25625031	     -8.81207380	      2.41988153	      8.46168648
      2.48000000	     -7.68792922	     -5.14503815	     -7.39655327	      0.36577479	      0.92860523	     -0.21182686	      2.21398499	      5.43109568	      8.66131743	    -31.17835562	      9.13362388	      5.86124655	     33.09987391	     -8.76487241	     -0.41322293	    -30.88483076	      1.20625312	     -3.98556078	     -8.92846254	      2.26920621	      8.76413906
      2.49000000	     -7.70588872	     -4.96712199	     -7.64094224	      0.35558773	      0.92751271	     -0.20913916	      2.12079430	      5.34526346	      8.60891365	    -30.10761684	     10.46282598	      5.57507614	     33.55414852	     -8.94544847	     -0.59220329	    -30.45596714	      0.32970272	     -3.64565912	     -9.06997538	      2.06743106	      9.05356266
      2.50000000	     -7.73367630	     -4.82948473	     -7.84429130	      0.34527304	      0.92650181	     -0.20650225	      2.20258872	      5.33659846	      8.40044535	    -29.27849008	     11.73110987	      4.81516664	     33.97564670	     -9.16470173	     -0.76279280	    -29.90915703	     -0.60721219	     -3.22776829	     -9.22608157	      1.91771365	      9.30246114
      2.51000000	     -7.78079403	     -4.68333353	     -7.99647053	      0.33489190	      0.92559252	     -0.20399189	      2.45978719	      5.34274493	      8.04444583	    -28.66857870	     12.93678239	      4.10331145	     34.36042744	     -9.36225098	     -0.94053403	    -29.22069324	     -1.65965646	     -2.82970757	     -9.37102342	      1.77171395	      9.48676439
      2.52000000	     -7.82272692	     -4.52515779	     -8.09672366	      0.32448568	      0.92484207	     -0.20164070	      2.85405634	      5.34612109	      7.54027698	    -28.25849804	     14.04392529	      3.48429969	     34.67543553	     -9.52900754	     -1.13802313	    -28.39058709	     -2.80863401	     -2.40437447	     -9.53209096	      1.62343632	      9.61229273
      2.53000000	     -7.89578823	     -4.37655885	     -8.12934615	      0.31414046	      0.92421947	     -0.19943294	      3.33694378	      5.39094145	      7.01863604	    -27.92046279	     15.00392755	      2.66829400	     34.96224582	     -9.66947100	     -1.28690946	    -27.43853030	     -4.02087786	     -1.92374551	     -9.65238503	      1.49942911	      9.65911072
      2.54000000	     -7.95640558	     -4.19611655	     -8.08910606	      0.30389273	      0.92376497	     -0.19745294	      3.89560134	      5.39251124	      6.39225930	    -27.70637927	     15.86116092	      2.06540047	     35.18000739	     -9.73182108	     -1.42739576	    -26.39264544	     -5.28038047	     -1.44198139	     -9.77609280	      1.35317490	      9.62085495
      2.55000000	     -8.02805203	     -3.99972344	     -7.97711697	      0.29380893	      0.92345852	     -0.19568054	      4.48857248	      5.38047241	      5.77387720	    -27.51841513	     16.57320666	      1.43829150	     35.35511004	     -9.71759534	     -1.47357701	    -25.29131952	     -6.54069386	     -0.93041867	     -9.86426814	      1.20484531	      9.49576895
      2.56000000	     -8.08094438	     -3.77788591	     -7.78785685	      0.28392749	      0.92330152	     -0.19414619	      5.09541727	      5.32234925	      5.11218323	    -27.38495169	     17.20256004	      0.93731415	     35.47694215	     -9.60824260	     -1.42073761	    -24.21082493	     -7.69509049	     -0.44194256	     -9.94678759	      1.03976015	      9.28270938
      2.57000000	     -8.12692098	     -3.54198313	     -7.52874757	      0.27431223	      0.92328684	     -0.19282213	      5.68085649	      5.24063050	      4.48692278	    -27.23718436	     17.70496505	      0.41360609	     35.55611180	     -9.40967177	     -1.20363900	    -23.20465579	     -8.64676062	      0.04368729	     -9.99965682	      0.86996098	      8.99474041
      2.58000000	     -8.13337125	     -3.30303431	     -7.21639833	      0.26496531	      0.92342737	     -0.19167912	      6.23073918	      5.13778393	      3.87294937	    -27.12101187	     18.11198845	     -0.07215204	     35.57332304	     -9.13844851	     -0.80973796	    -22.36007369	     -9.25478857	      0.47515746	    -10.06556139	      0.69848364	      8.65817762
      2.59000000	     -8.11164998	     -3.07859076	     -6.85963089	      0.25594718	      0.92370969	     -0.19068390	      6.71088990	      5.03922313	      3.30530685	    -26.96646242	     18.40457606	     -0.61749511	     35.55648007	     -8.82674622	     -0.27247175	    -21.75813502	     -9.42451997	      0.88266778	    -10.12303521	      0.54442734	      8.28301816
      2.60000000	     -8.03939228	     -2.87157934	     -6.48942084	      0.24723830	      0.92414475	     -0.18975447	      7.11897777	      4.95415187	      2.79816678	    -26.81583910	     18.63447092	     -1.17059400	     35.48489384	     -8.50064507	      0.36192228	    -21.45160144	     -9.09669717	      1.20729745	    -10.20169645	      0.39737148	      7.90482880
      2.61000000	     -7.92464850	     -2.69550724	     -6.10671161	      0.23886774	      0.92472405	     -0.18890455	      7.44814358	      4.89108106	      2.30846253	    -26.64257682	     18.77998222	     -1.71462744	     35.37222966	     -8.17983654	      1.03124021	    -21.47140924	     -8.26106835	      1.43392688	    -10.29232978	      0.27576323	      7.55294595
      2.62000000	     -7.76596527	     -2.55292566	     -5.73924495	      0.23080201	      0.92543826	     -0.18804927	      7.70738864	      4.86607354	      1.87929459	    -26.46583497	     18.85499248	     -2.27640160	     35.22002719	     -7.89950731	      1.61633932	    -21.82854501	     -6.98191297	      1.58931633	    -10.40046776	      0.17714310	      7.20275536
      2.63000000	     -7.57434578	     -2.44875536	     -5.39537996	      0.22302058	      0.92628464	     -0.18718237	      7.90150821	      4.87850630	      1.47299465	    -26.26448726	     18.85706356	     -2.80625415	     35.02866330	     -7.67561652	      2.06154812	    -22.49256255	     -5.37713642	      1.69112055	    -10.51783840	      0.10550782	      6.90933104
      2.64000000	     -7.36584883	     -2.38176083	     -5.08926857	      0.21550485	      0.92725105	     -0.18626019	      8.03911091	      4.93377175	      1.11208431	    -26.01931774	     18.78033991	     -3.29068305	     34.79852921	     -7.52994213	      2.28578223	    -23.41698923	     -3.57434301	      1.78499086	    -10.62573346	      0.05751786	      6.66727492
      2.65000000	     -7.14696903	     -2.33424062	     -4.85521959	      0.20816713	      0.92830746	     -0.18523282	      8.16625381	      5.01638349	      0.80986867	    -25.79027739	     18.66738910	     -3.78723219	     34.52500768	     -7.47949156	      2.20403439	    -24.56128958	     -1.68706146	      1.95098641	    -10.72705945	      0.00873673	      6.50741421
      2.66000000	     -6.93370078	     -2.31197361	     -4.68493995	      0.20100158	      0.92944573	     -0.18412797	      8.27551885	      5.12758891	      0.56124851	    -25.53034565	     18.48778598	     -4.21282914	     34.20282545	     -7.52607985	      1.85666599	    -25.86518324	      0.17040797	      2.14984014	    -10.80293909	     -0.02898804	      6.41935407
      2.67000000	     -6.73650105	     -2.30327573	     -4.58107640	      0.19396250	      0.93063096	     -0.18295101	      8.38764458	      5.25622384	      0.38101738	    -25.25341368	     18.26648497	     -4.59363089	     33.83446177	     -7.66325608	      1.26381082	    -27.29402829	      1.92416933	      2.38472789	    -10.84671310	     -0.06477637	      6.39290235
      2.68000000	     -6.55944845	     -2.31089881	     -4.53514692	      0.18703306	      0.93183612	     -0.18172918	      8.50501314	      5.40250783	      0.26940301	    -24.95716009	     18.00777726	     -4.92443288	     33.41952732	     -7.88278454	      0.49401619	    -28.82231519	      3.52189125	      2.61692426	    -10.85474111	     -0.09281265	      6.41382988
      2.69000000	     -6.41311885	     -2.33984671	     -4.53728431	      0.18019973	      0.93302723	     -0.18049210	      8.63086148	      5.56969956	      0.22223772	    -24.62759972	     17.72279956	     -5.14843138	     32.96701686	     -8.17149953	     -0.36584964	    -30.42830916	      4.89313794	      2.74292630	    -10.81752719	     -0.09997302	      6.48425310
      2.70000000	     -6.28438323	     -2.37283000	     -4.56245370	      0.17341660	      0.93418074	     -0.17929338	      8.78398385	      5.73390952	      0.21531431	    -24.32158318	     17.41258464	     -5.37678323	     32.46581713	     -8.47743348	     -1.20943027	    -32.09339504	      6.08702712	      2.89092492	    -10.75652818	     -0.10303496	      6.54779250
      2.71000000	     -6.18621418	     -2.41329019	     -4.58774368	      0.16666448	      0.93524110	     -0.17820830	      8.98495948	      5.89468194	      0.23258926	    -24.05237160	     17.10686365	     -5.48110583	     31.93447065	     -8.75914187	     -1.91938298	    -33.80070849	      7.09362195	      2.84598320	    -10.65896005	     -0.08359309	      6.57643946
      2.72000000	     -6.10926908	     -2.46551027	     -4.62205149	      0.15996324	      0.93623377	     -0.17718476	      9.20172110	      6.05886312	      0.26170192	    -23.77740563	     16.77376416	     -5.60994005	     31.36542582	     -9.02683658	     -2.51048448	    -35.53742338	      7.90800295	      2.86832383	    -10.53380120	     -0.05024638	      6.61802298
      2.73000000	     -6.05703505	     -2.51759612	     -4.63500471	      0.15328185	      0.93711294	     -0.17631879	      9.46731600	      6.20267187	      0.24267558	    -23.54410146	     16.44257077	     -5.74749778	     30.76971978	     -9.22218112	     -2.89877662	    -37.28157815	      8.57938860	      2.88359253	    -10.38084501	     -0.00108059	      6.62988905
      2.74000000	     -6.01655108	     -2.56282212	     -4.61666346	      0.14659479	      0.93788144	     -0.17563341	      9.77958697	      6.32510052	      0.21952850	    -23.37437265	     16.13410405	     -5.78955889	     30.13195090	     -9.31078397	     -3.04829179	    -39.00500278	      9.15868218	      2.78800163	    -10.22087915	      0.05635241	      6.57749601
      2.75000000	     -5.99194090	     -2.60649803	     -4.56956893	      0.13992475	      0.93853538	     -0.17513120	     10.13063067	      6.42764326	      0.15686639	    -23.24369944	     15.83311213	     -5.82411615	     29.46327418	     -9.30794953	     -3.01171579	    -40.69895611	      9.64584595	      2.71603566	    -10.04698012	      0.12971437	      6.48579073
      2.76000000	     -5.98069667	     -2.64700086	     -4.48681918	      0.13325166	      0.93906826	     -0.17479697	     10.52592490	      6.51230022	      0.05766487	    -23.16496788	     15.54689928	     -5.86256192	     28.76245218	     -9.21044822	     -2.80213091	    -42.34216955	     10.06901619	      2.68050510	     -9.86388505	      0.21111358	      6.33843668
      2.77000000	     -5.96921001	     -2.65624653	     -4.39930473	      0.12659439	      0.93951148	     -0.17461182	     10.95656979	      6.54859223	     -0.06079934	    -23.14740473	     15.27442640	     -5.88541071	     27.98875895	     -9.01204383	     -2.50939274	    -43.88962686	     10.47765394	      2.64366614	     -9.68385864	      0.26516891	      6.18129698
